<svg width="25" height="25" viewBox="0 0 25 25" fill="none" xmlns="http://www.w3.org/2000/svg">
<path fill-rule="evenodd" clip-rule="evenodd" d="M24.5263 12.5C24.5263 19.4036 19.0359 25 12.2631 25C5.49039 25 0 19.4036 0 12.5C0 5.59644 5.49039 0 12.2631 0C19.0359 0 24.5263 5.59644 24.5263 12.5ZM15.2077 7.85532C16.9135 8.45242 18.1614 9.34651 17.9166 11.0104C17.7387 12.2288 17.0736 12.8181 16.1899 13.0245C17.4023 13.6653 17.8155 14.8816 17.4316 16.3523C16.7026 18.4687 14.9698 18.6469 12.6651 18.2045L12.1054 20.4796L10.7545 20.1373L11.3064 17.8927C10.9562 17.8044 10.5982 17.7098 10.2295 17.609L9.67523 19.8645L8.32579 19.5222L8.88466 17.2424L6.16346 16.5453L6.83472 14.9744C6.83472 14.9744 7.83082 15.2425 7.81696 15.2229C8.19955 15.3191 8.36967 15.0658 8.43664 14.8978L9.95312 8.72284C9.97006 8.43132 9.87075 8.064 9.32344 7.92488C9.34422 7.91003 8.34196 7.67713 8.34196 7.67713L8.70145 6.21174L11.4265 6.89715L11.9807 4.64318L13.3309 4.9855L12.7882 7.19492C13.1516 7.27854 13.5165 7.36373 13.8713 7.45361L14.4102 5.25825L15.7612 5.60057L15.2077 7.85532ZM11.9786 11.6161C12.8988 11.8648 14.9014 12.406 15.2504 10.9871C15.6065 9.53537 13.661 9.09693 12.7084 8.88225L12.7084 8.88225C12.6004 8.85793 12.5052 8.83647 12.4276 8.81674L11.7548 11.5568C11.8188 11.573 11.894 11.5933 11.9783 11.6161L11.9785 11.6161L11.9786 11.6161ZM10.9347 16.0274C12.0369 16.3233 14.4476 16.9706 14.8312 15.4071C15.2238 13.8084 12.8865 13.276 11.746 13.0162C11.6186 12.9871 11.5062 12.9615 11.4141 12.9382L10.672 15.9581C10.7474 15.9771 10.8358 16.0008 10.9347 16.0274Z" fill="white"/>
</svg>
