<svg width="85" height="19" viewBox="0 0 85 19" fill="none" xmlns="http://www.w3.org/2000/svg">
<path fill-rule="evenodd" clip-rule="evenodd" d="M4.54209 18.6487H0.304688V0H4.54209V18.6487ZM15.1271 0H10.9816C10.9816 3.43183 9.41944 6.58171 6.69578 8.64246L5.0534 9.88478L11.4171 18.6494H16.6493L10.7938 10.5846C13.5694 7.79301 15.1271 4.0373 15.1271 0ZM21.8796 18.6432H17.8779V0.00321148H21.8796V18.6432ZM33.9717 5.74895V6.57378C32.8919 5.82978 31.5886 5.39256 30.1829 5.39256C26.4627 5.39256 23.4468 8.43867 23.4468 12.1963C23.4468 15.9539 26.4627 19 30.1829 19C31.5886 19 32.8919 18.5627 33.9717 17.8189V18.643H37.7939V5.74895H33.9717ZM33.9661 12.1963C33.9661 14.0285 32.4154 15.5139 30.5027 15.5139C28.59 15.5139 27.0394 14.0285 27.0394 12.1963C27.0394 10.3641 28.59 8.87916 30.5027 8.87916C32.4154 8.87916 33.9661 10.3641 33.9661 12.1963ZM74.2983 6.57378V5.74895H78.1203V18.643H74.2983V17.8189C73.2185 18.5627 71.9152 19 70.5094 19C66.7891 19 63.7733 15.9539 63.7733 12.1963C63.7733 8.43867 66.7891 5.39256 70.5094 5.39256C71.9152 5.39256 73.2185 5.82978 74.2983 6.57378ZM70.8291 15.5139C72.7419 15.5139 74.2923 14.0285 74.2923 12.1963C74.2923 10.3641 72.7419 8.87916 70.8291 8.87916C68.9163 8.87916 67.3658 10.3641 67.3658 12.1963C67.3658 14.0285 68.9163 15.5139 70.8291 15.5139ZM56.9783 5.40385C55.4515 5.40385 54.0066 5.88262 53.0405 7.20351V5.75142H49.2348V18.6447H53.0872V11.8688C53.0872 9.90808 54.389 8.94791 55.9564 8.94791C57.6362 8.94791 58.6019 9.96146 58.6019 11.8421V18.6447H62.4195V10.4451C62.4195 7.4445 60.0574 5.40385 56.9783 5.40385ZM43.702 5.74962V7.42898C44.4682 6.42163 45.8958 5.75038 47.448 5.75038V9.50233C47.4407 9.50224 47.4337 9.50187 47.4267 9.50149C47.4187 9.50106 47.4108 9.50064 47.4026 9.50064C45.8903 9.50064 43.7108 10.5924 43.7108 12.6234V18.6435H39.7888V5.74962H43.702ZM79.7696 16.4932C79.7696 15.1551 80.8434 14.0706 82.168 14.0706C83.4926 14.0706 84.5666 15.1551 84.5666 16.4932C84.5666 17.831 83.4926 18.9157 82.168 18.9157C80.8434 18.9157 79.7696 17.831 79.7696 16.4932Z" fill="white"/>
</svg>
