<svg width="92" height="24" viewBox="0 0 92 24" fill="none" xmlns="http://www.w3.org/2000/svg">
<path fill-rule="evenodd" clip-rule="evenodd" d="M10.9802 0H3.86314C3.37611 0 2.9619 0.348423 2.88596 0.821521L0.00746594 18.786C-0.0497465 19.1406 0.229143 19.4601 0.594426 19.4601H3.99216C4.47919 19.4601 4.8934 19.1116 4.96935 18.6376L5.74571 13.7924C5.8206 13.3178 6.23582 12.9699 6.72184 12.9699H8.97484C13.6631 12.9699 16.3686 10.7367 17.0756 6.31145C17.3939 4.37544 17.0891 2.85423 16.1678 1.78857C15.1565 0.619101 13.3621 0 10.9802 0ZM11.8013 6.56127C11.4121 9.07514 9.46086 9.07514 7.57415 9.07514H6.50017L7.25361 4.38018C7.29835 4.0967 7.5481 3.88765 7.8395 3.88765H8.33173C9.61694 3.88765 10.8294 3.88765 11.456 4.60867C11.8292 5.03911 11.9438 5.67812 11.8013 6.56127ZM32.2547 6.48068H28.8465C28.5561 6.48068 28.3052 6.68974 28.2604 6.97369L28.1097 7.91183L27.8713 7.57194C27.1335 6.51766 25.4884 6.16544 23.8462 6.16544C20.0797 6.16544 16.8632 8.97322 16.2367 12.9121C15.9111 14.8765 16.3739 16.7552 17.5061 18.0654C18.5449 19.27 20.0311 19.772 21.799 19.772C24.8335 19.772 26.5166 17.8511 26.5166 17.8511L26.3644 18.7836C26.3071 19.1401 26.586 19.4596 26.9491 19.4596H30.0192C30.5075 19.4596 30.9193 19.1112 30.9963 18.6371L32.8384 7.15478C32.8967 6.80161 32.6188 6.48068 32.2547 6.48068ZM27.5039 13.0102C27.175 14.9268 25.6295 16.2133 23.6589 16.2133C22.6692 16.2133 21.878 15.9009 21.3704 15.3088C20.8667 14.721 20.675 13.8839 20.8353 12.9519C21.1426 11.0514 22.714 9.72316 24.6548 9.72316C25.6223 9.72316 26.4092 10.0393 26.9274 10.6366C27.4466 11.2401 27.6527 12.082 27.5039 13.0102ZM46.9812 6.48021H50.4062C50.8859 6.48021 51.1657 7.00972 50.8931 7.39701L39.5021 23.5819C39.3177 23.844 39.0138 24 38.6892 24H35.2685C34.7869 24 34.5057 23.4662 34.7845 23.078L38.3314 18.1498L34.5591 7.25243C34.4286 6.87367 34.7127 6.48021 35.1221 6.48021H38.4874C38.9247 6.48021 39.3104 6.76274 39.4366 7.17469L41.4386 13.7563L46.1625 6.90732C46.3474 6.63996 46.6546 6.48021 46.9812 6.48021Z" fill="white"/>
<path fill-rule="evenodd" clip-rule="evenodd" d="M84.5658 18.0525L87.5055 0.474649C87.5506 0.201795 87.8022 0.00091103 88.0944 0H91.404C91.7695 0 92.0501 0.307927 91.9925 0.648653L89.0934 17.91C89.0178 18.3655 88.601 18.7003 88.11 18.7003H85.1542C84.7887 18.7003 84.5081 18.3933 84.5658 18.0525ZM62.0516 0.000912268H54.8871C54.3981 0.000912268 53.9812 0.335715 53.9046 0.790319L51.0075 18.0525C50.9499 18.3933 51.2305 18.7003 51.5965 18.7003H55.2725C55.6142 18.7003 55.9065 18.4661 55.9598 18.1473L56.7819 13.2541C56.8575 12.7982 57.2753 12.4638 57.7644 12.4638H60.0308C64.7504 12.4638 67.4731 10.3179 68.1851 6.06564C68.5064 4.20532 68.1977 2.74357 67.2709 1.71957C66.2535 0.595812 64.449 0.000912268 62.0516 0.000912268ZM62.878 6.3057C62.4874 8.7213 60.5233 8.7213 58.6233 8.7213H57.5433L58.3029 4.20987C58.3479 3.93747 58.5971 3.73659 58.8913 3.73659H59.3867C60.6794 3.73659 61.9009 3.73659 62.531 4.42943C62.9071 4.84304 63.0215 5.45707 62.878 6.3057ZM83.4621 6.22826H80.0342C79.7395 6.22826 79.4894 6.42914 79.4453 6.702L79.2936 7.60346L79.0527 7.27686C78.3101 6.26379 76.6553 5.92534 75.0025 5.92534C71.2116 5.92534 67.9752 8.62336 67.3446 12.4082C67.0179 14.2959 67.4818 16.1011 68.6213 17.3601C69.6688 18.5176 71.1626 19 72.942 19C75.9961 19 77.6897 17.1542 77.6897 17.1542L77.537 18.0503C77.4793 18.3928 77.76 18.6998 78.1279 18.6998H81.2164C81.7055 18.6998 82.1224 18.365 82.1989 17.9095L84.0539 6.876C84.1106 6.53665 83.83 6.22826 83.4621 6.22826ZM78.6809 12.5025C78.3518 14.3442 76.7945 15.5804 74.8106 15.5804C73.8164 15.5804 73.0186 15.2803 72.5072 14.7113C72.0002 14.1465 71.8097 13.342 71.9692 12.4465C72.2799 10.6203 73.8596 9.34398 75.8129 9.34398C76.7872 9.34398 77.5787 9.64781 78.1007 10.2218C78.6252 10.8016 78.8327 11.6106 78.6809 12.5025Z" fill="white"/>
</svg>
