<svg width="55" height="21" viewBox="0 0 55 21" fill="none" xmlns="http://www.w3.org/2000/svg">
<path fill-rule="evenodd" clip-rule="evenodd" d="M46.1702 0C44.7461 0 43.5896 1.13035 43.5896 2.52382C43.5896 3.91811 44.7461 5.04601 46.1702 5.04601C47.5968 5.04601 48.7525 3.91811 48.7525 2.52382C48.7525 1.13035 47.5968 0 46.1702 0ZM8.939 8.4546C8.27728 8.41279 6.74417 8.31525 6.74417 6.96686C6.74417 5.33978 8.9499 5.33978 9.77768 5.33978C11.2336 5.33978 13.1173 5.75946 14.4642 6.15373C14.4642 6.15373 15.214 6.41275 15.8522 6.67669L15.9118 6.69309V2.23644L15.8321 2.21266C14.242 1.66921 12.396 1.14707 8.97171 1.14707C3.06823 1.14707 0.976562 4.50697 0.976562 7.38818C0.976562 9.04723 1.70454 12.9555 8.46347 13.4055L8.46973 13.4059C9.04893 13.4406 10.5593 13.531 10.5593 14.9195C10.5593 16.0703 9.31389 16.7474 7.2197 16.7474C4.92507 16.7474 2.69754 16.1769 1.34558 15.6334V20.2221C3.37016 20.7426 5.65305 20.9999 8.32844 20.9999C14.0986 20.9999 16.6851 17.8204 16.6851 14.6678C16.6851 11.0948 13.7924 8.77264 8.939 8.4546ZM26.3638 6.47386L26.3639 6.47367C26.3751 6.44497 26.3839 6.42236 26.3904 6.40619H32.5715C32.3954 6.9562 31.2925 10.2751 28.7781 13.3916C28.7781 13.3916 31.5785 18.1876 32.2184 20.7893H25.7463C25.7463 20.7893 24.973 17.3351 23.408 15.04V20.7893H18.0036V2.19217L23.408 1.14707V11.4079C25.323 9.14421 26.1763 6.95491 26.3638 6.47386ZM58.6502 20.7893V2.06266L63.8877 1.14707V20.7893H58.6502ZM40.5918 6.21366C35.7535 6.36613 33.2953 8.48912 33.2953 12.7089V20.791H38.5756V14.1991C38.5756 11.6736 38.9145 10.5908 41.9815 10.4875V6.28825C41.4657 6.18088 40.5918 6.21366 40.5918 6.21366ZM43.5479 20.7916V6.42491H48.7846V20.7916H43.5479ZM51.0043 2.06266L56.2385 1.14707V20.7893H51.0043V2.06266Z" fill="white"/>
</svg>
