<svg width="69" height="29" viewBox="0 0 69 29" fill="none" xmlns="http://www.w3.org/2000/svg">
<path fill-rule="evenodd" clip-rule="evenodd" d="M37.0728 3.88484L32.2978 4.91825V1.01427L37.0728 0V3.88484ZM17.673 2.2195L13.0311 3.21464L13.0121 18.5435C13.0121 21.3758 15.1238 23.4618 17.9393 23.4618C19.4993 23.4618 20.6407 23.1747 21.2685 22.8302V18.9454C20.6597 19.1942 17.654 20.0745 17.654 17.2422V10.4485H21.2685V6.37227H17.654L17.673 2.2195ZM6.43008 10.1989C5.42181 10.1989 4.81305 10.486 4.81305 11.2323C4.81305 12.0472 5.86074 12.4057 7.16052 12.8504C9.27947 13.5754 12.0684 14.5296 12.0802 18.0643C12.0802 21.4899 9.35976 23.461 5.40279 23.461C3.76673 23.461 1.97849 23.1357 0.209263 22.3702V17.8155C1.80727 18.6958 3.8238 19.3465 5.40279 19.3465C6.46813 19.3465 7.22908 19.0594 7.22908 18.1791C7.22908 17.2765 6.09336 16.8639 4.72224 16.3658C2.63411 15.6072 0 14.6503 0 11.462C0 8.07469 2.56823 6.04614 6.43008 6.04614C8.00906 6.04614 9.56902 6.29493 11.148 6.92645V11.4237C9.70219 10.6391 7.87589 10.1989 6.43008 10.1989ZM27.1822 7.7893L26.8778 6.37315H22.7686V23.1182H27.5246V11.7698C28.647 10.2963 30.5494 10.5642 31.1391 10.7747V6.37315C30.5304 6.1435 28.3046 5.72248 27.1822 7.7893ZM32.2978 6.3717H37.0728V23.1167H32.2978V6.3717ZM68.4894 14.8111C68.4894 9.91195 66.1305 6.04624 61.6218 6.04624C57.0942 6.04624 54.3547 9.91195 54.3547 14.7728C54.3547 20.5331 57.5888 23.4419 62.2306 23.4419C64.4944 23.4419 66.2066 22.9252 67.5002 22.198V18.3706C66.2066 19.0212 64.7227 19.4231 62.8394 19.4231C60.994 19.4231 59.358 18.7725 59.1487 16.5143H68.4514C68.4514 16.4088 68.4582 16.1692 68.4661 15.8931V15.8927C68.4768 15.5177 68.4894 15.0755 68.4894 14.8111ZM59.0883 12.9943C59.0883 10.8318 60.4009 9.93231 61.5994 9.93231C62.7599 9.93231 63.9965 10.8318 63.9965 12.9943H59.0883ZM43.2814 7.53895C43.9473 6.92656 45.1458 6.04624 47.0101 6.04624C50.3393 6.04624 53.4782 9.06992 53.4973 14.6197C53.4973 20.6862 50.3964 23.442 46.9911 23.442C45.317 23.442 44.3087 22.7339 43.6239 22.2363L43.6048 27.6521L38.8489 28.6664V6.35244H43.0341L43.2814 7.53895ZM43.6221 18.3316C44.0787 18.8292 44.7445 19.2311 45.8669 19.2311C47.6171 19.2311 48.7966 17.3174 48.7966 14.753C48.7966 12.246 47.5981 10.294 45.8669 10.294C44.7826 10.294 44.0977 10.6768 43.6031 11.2318L43.6221 18.3316Z" fill="white"/>
</svg>
