<svg width="60" height="19" viewBox="0 0 60 19" fill="none" xmlns="http://www.w3.org/2000/svg">
<path fill-rule="evenodd" clip-rule="evenodd" d="M14.8728 18.7055H9.72441L5.86376 4.08137C5.68052 3.40866 5.29144 2.81395 4.71912 2.53365C3.29084 1.82926 1.71696 1.26867 0 0.985934V0.422905H8.29361C9.43825 0.422905 10.2967 1.26867 10.4398 2.25092L12.4429 12.7998L17.5888 0.422905H22.5941L14.8728 18.7055ZM25.4548 18.7055H20.5926L24.5963 0.422905H29.4585L25.4548 18.7055ZM35.7511 5.48648C35.8942 4.50179 36.7527 3.93876 37.7543 3.93876C39.3281 3.7974 41.0426 4.08013 42.4734 4.78209L43.3319 0.845762C41.9011 0.282733 40.3272 0 38.8989 0C34.1798 0 30.7459 2.53241 30.7459 6.04707C30.7459 8.72085 33.1782 10.1248 34.8952 10.9705C36.7527 11.8139 37.4681 12.3769 37.325 13.2202C37.325 14.4852 35.8942 15.0482 34.4659 15.0482C32.749 15.0482 31.032 14.6266 29.4607 13.9222L28.6022 17.8609C30.3191 18.5629 32.1767 18.8456 33.8936 18.8456C39.1851 18.9845 42.4734 16.4546 42.4734 12.6572C42.4734 7.87509 35.7511 7.59479 35.7511 5.48648V5.48648ZM59.4889 18.7055L55.6283 0.422905H51.4815C50.623 0.422905 49.7645 0.985934 49.4784 1.82926L42.3294 18.7055H47.3347L48.3337 16.0341H54.4836L55.056 18.7055H59.4889ZM52.201 5.34503L53.6293 12.2354H49.6256L52.201 5.34503Z" fill="white"/>
</svg>
